<?xml version="1.0" encoding="UTF-8" standalone="no"?>
<!-- Created with Inkscape (http://www.inkscape.org/) -->

<svg
   xmlns:dc="http://purl.org/dc/elements/1.1/"
   xmlns:cc="http://creativecommons.org/ns#"
   xmlns:rdf="http://www.w3.org/1999/02/22-rdf-syntax-ns#"
   xmlns:svg="http://www.w3.org/2000/svg"
   xmlns="http://www.w3.org/2000/svg"
   xmlns:sodipodi="http://sodipodi.sourceforge.net/DTD/sodipodi-0.dtd"
   xmlns:inkscape="http://www.inkscape.org/namespaces/inkscape"
   width="324.28888"
   height="159.21935"
   id="svg2872"
   version="1.1"
   inkscape:version="0.47 r22583"
   sodipodi:docname="could storm.svg">
  <defs
     id="defs2874">
    <inkscape:perspective
       sodipodi:type="inkscape:persp3d"
       inkscape:vp_x="0 : 526.18109 : 1"
       inkscape:vp_y="0 : 1000 : 0"
       inkscape:vp_z="744.09448 : 526.18109 : 1"
       inkscape:persp3d-origin="372.04724 : 350.78739 : 1"
       id="perspective2880" />
    <inkscape:perspective
       id="perspective2890"
       inkscape:persp3d-origin="0.5 : 0.33333333 : 1"
       inkscape:vp_z="1 : 0.5 : 1"
       inkscape:vp_y="0 : 1000 : 0"
       inkscape:vp_x="0 : 0.5 : 1"
       sodipodi:type="inkscape:persp3d" />
    <inkscape:perspective
       id="perspective3804"
       inkscape:persp3d-origin="0.5 : 0.33333333 : 1"
       inkscape:vp_z="1 : 0.5 : 1"
       inkscape:vp_y="0 : 1000 : 0"
       inkscape:vp_x="0 : 0.5 : 1"
       sodipodi:type="inkscape:persp3d" />
    <inkscape:perspective
       id="perspective3829"
       inkscape:persp3d-origin="0.5 : 0.33333333 : 1"
       inkscape:vp_z="1 : 0.5 : 1"
       inkscape:vp_y="0 : 1000 : 0"
       inkscape:vp_x="0 : 0.5 : 1"
       sodipodi:type="inkscape:persp3d" />
  </defs>
  <sodipodi:namedview
     id="base"
     pagecolor="#ffffff"
     bordercolor="#666666"
     borderopacity="1.0"
     inkscape:pageopacity="0.0"
     inkscape:pageshadow="2"
     inkscape:zoom="0.98994949"
     inkscape:cx="318.15837"
     inkscape:cy="100.60231"
     inkscape:document-units="px"
     inkscape:current-layer="layer1"
     showgrid="false"
     showguides="true"
     inkscape:guide-bbox="true"
     inkscape:window-width="1600"
     inkscape:window-height="838"
     inkscape:window-x="-8"
     inkscape:window-y="-8"
     inkscape:window-maximized="1" />
  <metadata
     id="metadata2877">
    <rdf:RDF>
      <cc:Work
         rdf:about="">
        <dc:format>image/svg+xml</dc:format>
        <dc:type
           rdf:resource="http://purl.org/dc/dcmitype/StillImage" />
        <dc:title></dc:title>
      </cc:Work>
    </rdf:RDF>
  </metadata>
  <g
     inkscape:label="Camada 1"
     inkscape:groupmode="layer"
     id="layer1"
     transform="translate(-179.89445,-461.22719)">
    <g
       id="g3873">
      <path
         sodipodi:nodetypes="cccccccccccccccccsccccccccscccccscccccccccccccccccccccccsccccccccccccccccccccccscccccccccccccccccccccccccccccccccccccc"
         id="path2960"
         d="m 212.13203,510.92042 c 0,0 -1.74697,5.53899 -1.51522,9.09137 0.71992,9.80329 7.0495,18.90819 15.15228,24.24366 l 3.59867,1.8309 1.51523,2.52538 2.90419,4.35629 2.77792,3.15672 4.48255,3.283 4.73509,2.84105 5.3033,2.33598 8.5863,2.14658 4.73509,0.82074 8.14435,0.25254 8.08122,-0.1894 8.25484,-2.22549 8.79149,-3.70916 4.41942,-2.58851 c 0.69512,3.86146 1.20795,8.12242 3.79411,11.12725 5.68898,6.60998 22.68799,9.0479 27.00893,-0.66964 l 2.8125,6.16072 4.375,4.59821 5.71428,3.48214 5.35715,2.05357 3.97321,0.80358 6.29464,0.71428 5.9375,0.22322 c 0,0 6.875,-1.29465 7.76786,-0.84822 0.89286,0.44643 6.74107,-0.75893 6.74107,-0.75893 l 7.8125,-2.45535 5.98214,-3.08036 4.375,-3.125 1.30159,-1.24228 c 0.55383,17.32643 21.63293,20.21414 34.21892,15.02602 l 8.27063,-3.40927 0.75761,1.19956 c 19.41071,8.31696 37.80559,-7.94968 52.33853,-19.38231 1.07554,-0.9407 3.09359,-2.96732 3.09359,-2.96732 l -1.6415,3.53554 -4.86136,6.94479 -6.69226,6.69227 -10.85914,8.14435 -7.95495,5.1139 -5.87151,2.84105 -6.37659,2.58852 -5.11389,1.45209 -5.05077,0.63135 -4.67195,-0.18941 -5.3033,-1.01015 -2.71479,-1.19956 -2.39911,2.84106 -4.79823,5.36643 -3.97747,2.96733 -3.85121,2.27284 -4.41942,2.08344 -3.59866,0.94702 -4.54569,0.82075 c 0,0 -3.40927,0.3788 -3.85121,0.3788 -0.44194,0 -4.86136,-0.1894 -4.86136,-0.1894 l -4.73509,-0.44194 -5.4927,-1.07329 -7.19734,-1.8309 -6.62912,-2.33598 -7.00794,-2.96732 -4.35628,-1.45209 -4.23001,-0.82075 -5.24017,-0.31568 -3.59867,-0.3788 -5.05076,0.82075 -5.24017,1.01015 -4.79822,1.70463 -4.10375,1.8309 -4.79822,1.26269 -5.80838,0.82075 -4.41942,0.12627 -4.10374,-0.88388 -4.67196,-1.13642 -5.24016,-2.90419 -3.03046,-3.283 -1.13642,-2.46225 c 0,0 -5.61898,2.33598 -5.87151,2.33598 -0.25254,0 -5.05077,0.69448 -5.05077,0.69448 l -4.16688,0.0631 -7.44987,-0.44195 -6.43972,-1.01015 -5.68211,-2.33598 -6.43972,-3.28299 -4.9245,-4.16688 -4.04061,-5.24017 -2.27284,-5.55584 -2.14657,2.65165 -3.91435,3.0936 -3.72493,1.57836 -5.42957,1.57836 -5.36644,0.50508 -6.88166,0 -7.00794,-1.07329 -7.19733,-2.52538 -9.15451,-4.86136 -4.73509,-4.54568 -2.14657,-4.60883 -0.50508,-4.04061 0.94702,-5.87151 2.46224,-9.53331 1.83091,-4.48255 0.44194,-4.86136 -1.26269,-4.9245 -3.91434,-6.06091 -2.77792,-2.65165 -1.76777,-2.65165 -0.69448,-3.21986 0.94702,-3.40927 2.96732,-3.59867 3.97748,-2.77792 5.05076,-3.09359 7.57614,-2.90419 6.18719,-1.8309 4.98762,-0.88388 0,4e-5 z"
         style="fill:#e6e6e6;fill-opacity:1;stroke:none" />
      <path
         sodipodi:nodetypes="csscc"
         id="path2908"
         d="m 295.54469,605.47 c 8.06886,11.58942 24.71122,11.34994 36.2649,6.60271 11.75286,-4.82907 24.10599,-5.70384 36.15722,-0.12133 17.36648,8.0447 41.32177,12.93948 57.38437,-1.39446 6.74864,-6.44933 12.5466,-15.69627 18.8417,-22.54544"
         style="fill:none;stroke:#000000;stroke-width:1.5;stroke-linecap:butt;stroke-linejoin:miter;stroke-miterlimit:4;stroke-opacity:1;stroke-dasharray:none" />
      <path
         sodipodi:nodetypes="csc"
         id="path2906"
         d="m 242.5,582.00504 c 2.78123,20.05974 26.44715,28.2789 44.2875,25.54834 6.65899,-1.01919 12.63177,-3.94411 17.85536,-8.04834"
         style="fill:none;stroke:#000000;stroke-width:1.5;stroke-linecap:butt;stroke-linejoin:miter;stroke-miterlimit:4;stroke-opacity:1;stroke-dasharray:none" />
      <path
         sodipodi:nodetypes="ccccccccccccccccccccccccccccccccccccszccccccccscccccccccccccccsccccccccccccccccccccccccccccscccccccccccccc"
         id="path3739"
         d="m 308.6875,461.9375 -9.75,1.28125 -10.3125,3.5 -6.8125,4.15625 -5.4375,4.84375 -2.6875,-1.125 -5.5,-1.15625 -5.59375,-0.5 -6.1875,-0.28125 -7.03125,0.6875 -8.96875,2.21875 -6.34375,2.84375 -4.15625,2.28125 -6.28125,4.71875 -6.5625,6.9375 -3.28125,6.59375 -1.53125,6.3125 -0.375,5.15625 -0.78125,0.6875 1.03125,-0.1875 c 0,0 -1.73175,5.54137 -1.5,9.09375 0.71992,9.80329 7.05347,18.91453 15.15625,24.25 l 3.59375,1.84375 1.5,2.53125 2.90625,4.34375 2.78125,3.15625 4.5,3.28125 4.71875,2.84375 5.3125,2.34375 8.59375,2.125 4.71875,0.84375 8.15625,0.25 8.0625,-0.1875 8.25,-2.25 8.8125,-3.6875 4.40625,-2.59375 c 0.69512,3.86146 1.01449,8.25578 3.30742,11.50381 5.64235,7.9926 21.04407,7.6384 25.66133,1.93369 4.61726,-5.70471 1.84375,-2.96875 1.84375,-2.96875 l 2.8125,6.15625 4.375,4.59375 5.71875,3.46875 5.34375,2.0625 3.96875,0.8125 6.3125,0.71875 5.9375,0.21875 c 0,0 6.85714,-1.29018 7.75,-0.84375 0.89286,0.44643 6.75,-0.78125 6.75,-0.78125 l 7.8125,-2.4375 5.96875,-3.09375 4.375,-3.125 1.3125,-1.25 c 0.55383,17.32643 21.63276,20.21937 34.21875,15.03125 l 8.28125,-3.40625 0.75,1.21875 c 19.41071,8.31696 37.81081,-7.97362 52.34375,-19.40625 1.03194,-0.90256 2.84768,-2.72225 3,-2.875 l 1,-2.09375 2.09375,-6.4375 0.34375,-4.4375 -0.3125,-5.40625 -1.65625,-6.125 c 0,0 -3.06059,-5.0606 -3.25,-5.25 C 497.96685,536.6856 494.5625,533 494.5625,533 l -1.625,-0.96875 -0.1875,-4.65625 -0.71875,-4.34375 -1.28125,-6.09375 -2.9375,-7.03125 -2.125,-3.46875 -3.625,-4.96875 -5.3125,-4.375 -5.3125,-2.71875 -6.25,-0.875 -4.5,0.78125 -6.75,1.3125 -5.71875,-0.4375 -4.34375,-1.8125 -4.6875,-2.71875 -4.9375,-3.875 -6.0625,-4.3125 -3.75,-1.9375 -3.71875,-0.40625 -4.21875,0.78125 -4.15625,1.6875 -4.625,3.46875 -1.9375,2.4375 -5.9375,-7.9375 -6.96875,-5.25 -8,-3.84375 -5.40625,-1.78125 c 0,0 -9.15498,-0.81155 -9.28125,-0.90625 -0.12627,-0.0947 -9.65625,1.5625 -9.65625,1.5625 l -7.8125,3.6875 -4.3125,3.21875 -5.3125,-4.28125 -4.40625,-2.9375 -4.03125,-2.03125 -7,-3 -6.625,-1.71875 -7.3125,-1.21875 -5.03125,-0.0937 z m 189.5,108.40625 -1.46875,2.09375 0.71875,-0.53125 0.75,-1.5625 z"
         style="fill:#ffffff;fill-opacity:1;stroke:none" />
      <path
         sodipodi:nodetypes="cssc"
         id="path2910"
         d="m 432.85714,602.00504 c 18.87964,9.44827 44.69919,-10.67436 54.53666,-18.98042 8.76468,-7.40027 20.35787,-23.25373 14.40853,-39.39686 -1.75396,-4.75925 -4.81152,-9.05083 -8.94519,-11.97986"
         style="fill:none;stroke:#000000;stroke-width:1.5;stroke-linecap:butt;stroke-linejoin:miter;stroke-miterlimit:4;stroke-opacity:1;stroke-dasharray:none" />
      <path
         id="path2896"
         d="m 268.57143,492.36218 c 3.26545,-23.13121 30.28037,-33.46329 51.00631,-29.58892 11.70449,2.45295 23.33365,8.19561 31.49369,17.08892"
         style="fill:none;stroke:#000000;stroke-width:1.5;stroke-linecap:butt;stroke-linejoin:miter;stroke-miterlimit:4;stroke-opacity:1;stroke-dasharray:none" />
      <path
         sodipodi:nodetypes="cc"
         id="path2898"
         d="m 348.39286,477.09433 c 17.74512,-15.27315 47.61084,-6.82999 58.91959,14.03054"
         style="fill:none;stroke:#000000;stroke-width:1.5;stroke-linecap:butt;stroke-linejoin:miter;stroke-miterlimit:4;stroke-opacity:1;stroke-dasharray:none" />
      <path
         sodipodi:nodetypes="ccc"
         id="path2902"
         d="m 211.89032,510.63775 c -0.26723,-23.76455 24.67166,-37.97582 46.34695,-37.85465 6.16126,-0.14037 12.37917,0.7048 18.1913,2.79337"
         style="fill:none;stroke:#000000;stroke-width:1.5;stroke-linecap:butt;stroke-linejoin:miter;stroke-miterlimit:4;stroke-opacity:1;stroke-dasharray:none" />
      <path
         sodipodi:nodetypes="czzc"
         id="path2904"
         d="m 243.21429,586.29075 c -13.3675,18.84339 -59.46833,5.94401 -57.96882,-12.60181 1.49951,-18.54582 12.73333,-22.29022 -1.30837,-37.33836 -14.04171,-15.04814 20.61819,-24.80193 32.84861,-26.4884"
         style="fill:none;stroke:#000000;stroke-width:1.5;stroke-linecap:butt;stroke-linejoin:miter;stroke-miterlimit:4;stroke-opacity:1;stroke-dasharray:none" />
      <path
         sodipodi:nodetypes="cssc"
         id="path2912"
         d="m 492.5,535.21932 c 3.07375,-18.87927 -12.40059,-46.71196 -32.04947,-40.82752 -15.21488,4.55654 -22.94054,-5.14744 -33.07093,-12.49708 -6.85002,-4.96971 -17.08168,0.52904 -22.02246,6.53889"
         style="fill:none;stroke:#000000;stroke-width:1.5;stroke-linecap:butt;stroke-linejoin:miter;stroke-miterlimit:4;stroke-opacity:1;stroke-dasharray:none" />
      <path
         sodipodi:nodetypes="cc"
         id="path2946"
         d="m 229.28571,545.93361 c 15.97387,24.82344 49.20539,28.20442 72.85715,12.85714"
         style="fill:none;stroke:#000000;stroke-width:1.5;stroke-linecap:butt;stroke-linejoin:miter;stroke-miterlimit:4;stroke-opacity:1;stroke-dasharray:none" />
      <path
         id="path2948"
         d="m 332.85714,569.50504 c 6.55645,19.52589 31.17291,19.6199 48.0178,16.54398 7.54028,-1.59752 14.83136,-4.88047 20.55363,-10.11541"
         style="fill:none;stroke:#000000;stroke-width:1.5;stroke-linecap:butt;stroke-linejoin:miter;stroke-miterlimit:4;stroke-opacity:1;stroke-dasharray:none" />
    </g>
  </g>
</svg>
