<?xml version="1.0" encoding="UTF-8"?>
<!DOCTYPE svg PUBLIC "-//W3C//DTD SVG 1.1//EN" "http://www.w3.org/Graphics/SVG/1.1/DTD/svg11.dtd">
<!-- Creator: CorelDRAW -->
<svg xmlns="http://www.w3.org/2000/svg" xml:space="preserve" width="23.882mm" height="20.3528mm" style="shape-rendering:geometricPrecision; text-rendering:geometricPrecision; image-rendering:optimizeQuality; fill-rule:evenodd; clip-rule:evenodd"
viewBox="0 0 5.91939 5.04464"
 xmlns:xlink="http://www.w3.org/1999/xlink">
 <defs>
  <style type="text/css">
   <![CDATA[
    .str4 {stroke:#383431;stroke-width:0.0188869}
    .str3 {stroke:#383431;stroke-width:0.0436977;stroke-opacity:0.501961}
    .str0 {stroke:#00923F;stroke-width:0.0874202}
    .str2 {stroke:#383431;stroke-width:0.0874202}
    .str7 {stroke:#838281;stroke-width:0.0874202}
    .str8 {stroke:#007CC3;stroke-width:0.174865;stroke-linecap:round}
    .str5 {stroke:#4D4948;stroke-width:0.174865}
    .str9 {stroke:#605D5C;stroke-width:0.174865;stroke-linecap:round}
    .str6 {stroke:#DEDEDD;stroke-width:0.26231}
    .str1 {stroke:#E77817;stroke-width:0.349755;stroke-linecap:round}
    .fil1 {fill:none}
    .fil0 {fill:#00923F}
    .fil6 {fill:#4D4948}
    .fil7 {fill:white}
    .fil4 {fill:#383431;fill-rule:nonzero}
    .fil5 {fill:#E77817;fill-rule:nonzero}
    .fil2 {fill:white;fill-rule:nonzero}
    .fil3 {fill:white;fill-rule:nonzero;fill-opacity:0.501961}
   ]]>
  </style>
 </defs>
 <g id="Diagram">
  <metadata id="CorelCorpID_0Corel-Layer"/>
  <g id="_49124488">
   <path id="_117046224" class="fil0 str0" d="M1.03516 0.0437225l3.22218 0c0.546085,0 0.99144,0.445454 0.99144,0.99144l0 2.97432c0,0.545986 -0.445454,0.99144 -0.99144,0.99144l-3.22218 0c-0.545986,0 -0.99144,-0.445355 -0.99144,-0.99144l0 -2.97432c0,-0.546085 0.445355,-0.99144 0.99144,-0.99144z"/>
   <line id="_49208744" class="fil1 str1" x1="5.7445" y1="3.51376" x2="5.24878" y2= "3.51376" />
   <line id="_48674328" class="fil1 str1" x1="5.7445" y1="3.01765" x2="5.24878" y2= "3.01765" />
   <line id="_117043344" class="fil1 str1" x1="5.7445" y1="2.0266" x2="5.24878" y2= "2.0266" />
   <line id="_48748168" class="fil1 str1" x1="5.7445" y1="2.52193" x2="5.24878" y2= "2.52193" />
   <line id="_49526664" class="fil1 str1" x1="5.7445" y1="1.53049" x2="5.24878" y2= "1.53049" />
   <line id="_48747720" class="fil1 str1" x1="5.7445" y1="1.03477" x2="5.24878" y2= "1.03477" />
   <line id="_48604656" class="fil1 str1" x1="5.7445" y1="4.00928" x2="5.24878" y2= "4.00928" />
   <g>
    <path id="_117039072" class="fil2 str2" d="M4.03258 3.17018c-0.240127,0 -0.444661,-0.0844459 -0.613949,-0.253759 -0.169313,-0.169288 -0.253759,-0.373822 -0.253759,-0.613949 0,-0.23973 0.0844459,-0.444215 0.253759,-0.613553 0.169288,-0.169313 0.373822,-0.253759 0.613949,-0.253759 0.23973,0 0.444264,0.0844459 0.613553,0.253759 0.169313,0.169338 0.253759,0.373822 0.253759,0.613553 0,0.239383 -0.0844459,0.443868 -0.253759,0.613181 -0.169288,0.169685 -0.373822,0.254527 -0.613553,0.254527z"/>
    <path id="_117040832" class="fil3 str3" d="M4.03258 3.11253c0.223297,0 0.414224,-0.079216 0.572358,-0.237301 0.158085,-0.158085 0.237301,-0.348987 0.237301,-0.572755 0,-0.223297 -0.079216,-0.414224 -0.237301,-0.572309 -0.158135,-0.158085 -0.349061,-0.237351 -0.572358,-0.237351 -0.223694,0 -0.41462,0.0792656 -0.572705,0.237351 -0.158135,0.158085 -0.237351,0.349012 -0.237351,0.572309 0,0.223768 0.079216,0.41467 0.237351,0.572755 0.158085,0.158085 0.349012,0.237301 0.572705,0.237301z"/>
    <polygon id="_48781120" class="fil4 str4" points="3.44265,2.59708 3.48228,2.66628 3.41343,2.70594 3.37345,2.63708 "/>
    <polygon id="_22621816" class="fil4 str4" points="4.58452,1.93826 4.65253,1.89824 4.69253,1.96749 4.62452,2.00712 "/>
    <polygon id="_49239480" class="fil4 str4" points="4.32759,2.8924 4.3956,2.85282 4.4356,2.92162 4.36756,2.96168 "/>
    <polygon id="_117180056" class="fil4 str4" points="3.66753,1.75059 3.62795,1.68252 3.6972,1.64287 3.73684,1.71095 "/>
    <polygon id="_117180872" class="fil4 str4" points="3.66877,2.85282 3.73803,2.8924 3.69797,2.96168 3.62917,2.92162 "/>
    <polygon id="_46439440" class="fil4 str4" points="4.32759,1.71095 4.36756,1.64287 4.43682,1.68252 4.39679,1.75175 "/>
    <polygon id="_48775128" class="fil4 str4" points="4.58211,2.66628 4.62212,2.59708 4.69139,2.63708 4.65134,2.70594 "/>
    <polygon id="_48082616" class="fil4 str4" points="3.44146,2.00712 3.37223,1.96749 3.41224,1.89824 3.48109,1.93826 "/>
    <polygon id="_117047312" class="fil4 str4" points="3.99255,2.96046 4.07222,2.96046 4.07222,3.04013 3.99255,3.04013 "/>
    <polygon id="_49203592" class="fil4 str4" points="4.69139,2.3425 4.69139,2.26284 4.77103,2.26284 4.77103,2.3425 "/>
    <polygon id="_117052024" class="fil4 str4" points="3.37223,2.3425 3.2926,2.3425 3.2926,2.26284 3.37223,2.26284 "/>
    <polygon id="_48005472" class="fil4 str4" points="3.98703,1.592 4.06669,1.592 4.06669,1.67167 3.98703,1.67167 "/>
    <polygon id="_117048432" class="fil5" points="4.75728,2.09784 4.58999,2.25121 4.57398,2.195 4.08704,2.33368 4.00351,2.35747 3.91995,2.38126 3.89616,2.29774 3.97971,2.27394 4.06324,2.25015 4.55019,2.11144 4.5344,2.05605 "/>
   </g>
   <path id="_117044208" class="fil6 str5" d="M1.03516 0.291582l0.99144 0c0.409539,0 0.74358,0.334115 0.74358,0.74358l0 2.97432c0,0.409465 -0.334115,0.74358 -0.74358,0.74358l-0.99144 0c-0.409465,0 -0.74358,-0.334041 -0.74358,-0.74358l0 -2.97434c0,-0.409539 0.334041,-0.743555 0.74358,-0.743555z"/>
   <g>
    <polyline id="_49100432" class="fil1 str6" points="0.291582,3.51376 1.24959,2.46011 1.24959,3.16116 2.77021,1.53088 "/>
    <g>
     <path id="_48079816" class="fil7 str7" d="M1.77874 0.787302l0.49572 0c0.136521,0 0.24786,0.111339 0.24786,0.24786l0 2.97432c0,0.136521 -0.111339,0.24786 -0.24786,0.24786l-0.49572 0c-0.136521,0 -0.24786,-0.111339 -0.24786,-0.24786l0 -2.97432c0,-0.136521 0.111339,-0.24786 0.24786,-0.24786z"/>
     <line id="_49249608" class="fil1 str8" x1="1.77874" y1="1.77874" x2="2.27446" y2= "1.77874" />
     <line id="_46755272" class="fil1 str9" x1="1.77874" y1="2.02665" x2="2.0266" y2= "2.0266" />
     <line id="_117040976" class="fil1 str9" x1="1.77874" y1="2.27451" x2="2.0266" y2= "2.27446" />
     <line id="_47882280" class="fil1 str8" x1="1.77874" y1="2.52222" x2="2.27446" y2= "2.52222" />
     <line id="_49255136" class="fil1 str9" x1="1.77874" y1="2.77013" x2="2.0266" y2= "2.77018" />
     <line id="_48767816" class="fil1 str9" x1="1.77874" y1="3.01799" x2="2.0266" y2= "3.01804" />
     <line id="_117139704" class="fil1 str8" x1="1.77874" y1="3.2658" x2="2.27446" y2= "3.2658" />
     <line id="_49280144" class="fil1 str9" x1="1.77874" y1="3.51371" x2="2.0266" y2= "3.51376" />
     <line id="_46339024" class="fil1 str9" x1="1.77874" y1="3.76157" x2="2.0266" y2= "3.76162" />
     <line id="_117054000" class="fil1 str8" x1="1.77874" y1="1.03521" x2="2.27446" y2= "1.03521" />
     <line id="_48672752" class="fil1 str9" x1="1.77874" y1="1.28312" x2="2.0266" y2= "1.28302" />
     <line id="_48792288" class="fil1 str9" x1="1.77874" y1="1.53098" x2="2.0266" y2= "1.53088" />
     <line id="_47886280" class="fil1 str8" x1="1.77874" y1="4.00943" x2="2.27446" y2= "4.00943" />
    </g>
   </g>
  </g>
 </g>
</svg>
